<svg id="그룹_6692" data-name="그룹 6692" xmlns="http://www.w3.org/2000/svg" xmlns:xlink="http://www.w3.org/1999/xlink" width="26.167" height="26.168" viewBox="0 0 26.167 26.168">
  <defs>
    <clipPath id="clip-path">
      <rect id="사각형_6839" data-name="사각형 6839" width="26.168" height="26.168" fill="none"/>
    </clipPath>
  </defs>
  <g id="그룹_6691" data-name="그룹 6691" clip-path="url(#clip-path)">
    <path id="패스_2123" data-name="패스 2123" d="M14.434,21.681,25.8,16.157a13.083,13.083,0,1,1-.9-8.688L13.859,12.835,6.1,9.494a1.246,1.246,0,1,0-.986,2.289L13.4,15.35a1.244,1.244,0,0,0,1.038-.024l11.324-5.5a13.139,13.139,0,0,1,.4,2.728q.014.33.01.658l-12.309,5.98L6.1,15.849a1.246,1.246,0,0,0-.986,2.289L13.4,21.705a1.244,1.244,0,0,0,1.038-.024" transform="translate(0 0)" fill="#00bfff"/>
  </g>
</svg>
