<svg id="그룹_2371" data-name="그룹 2371" xmlns="http://www.w3.org/2000/svg" width="28.284" height="28.284" viewBox="0 0 28.284 28.284">
  <path id="패스_2098" data-name="패스 2098" d="M0,0H28.284V28.284H0Z" fill="none"/>
  <path id="패스_2099" data-name="패스 2099" d="M9,9.714V8.535a3.535,3.535,0,1,1,7.071,0V9.714" transform="translate(1.606 0.892)" fill="none" stroke="#fff" stroke-linecap="round" stroke-linejoin="round" stroke-width="1.5"/>
  <path id="패스_2100" data-name="패스 2100" d="M8.178,9h9.428a7.071,7.071,0,0,1,1.178,3.535v3.535A5.892,5.892,0,0,1,7,16.071V12.535A7.071,7.071,0,0,1,8.178,9" transform="translate(1.249 1.606)" fill="none" stroke="#fff" stroke-linecap="round" stroke-linejoin="round" stroke-width="1.5"/>
  <line id="선_7" data-name="선 7" x2="4.824" transform="translate(3.216 15.418)" fill="none" stroke="#fff" stroke-linecap="round" stroke-linejoin="round" stroke-width="1.5"/>
  <line id="선_8" data-name="선 8" x2="4.824" transform="translate(20.102 15.418)" fill="none" stroke="#fff" stroke-linecap="round" stroke-linejoin="round" stroke-width="1.5"/>
  <line id="선_9" data-name="선 9" y1="7.237" transform="translate(14.473 16.223)" fill="none" stroke="#fff" stroke-linecap="round" stroke-linejoin="round" stroke-width="1.5"/>
  <line id="선_10" data-name="선 10" y1="2.357" x2="3.948" transform="translate(4.714 20.034)" fill="none" stroke="#fff" stroke-linecap="round" stroke-linejoin="round" stroke-width="1.5"/>
  <line id="선_11" data-name="선 11" x1="3.948" y1="2.357" transform="translate(19.622 20.034)" fill="none" stroke="#fff" stroke-linecap="round" stroke-linejoin="round" stroke-width="1.5"/>
  <line id="선_12" data-name="선 12" x2="4.419" y2="2.828" transform="translate(4.714 8.249)" fill="none" stroke="#fff" stroke-linecap="round" stroke-linejoin="round" stroke-width="1.5"/>
  <line id="선_13" data-name="선 13" x1="4.419" y2="2.828" transform="translate(19.15 8.249)" fill="none" stroke="#fff" stroke-linecap="round" stroke-linejoin="round" stroke-width="1.5"/>
</svg>
