<svg id="그룹_2382" data-name="그룹 2382" xmlns="http://www.w3.org/2000/svg" xmlns:xlink="http://www.w3.org/1999/xlink" width="23.229" height="23.229" viewBox="0 0 23.229 23.229">
  <defs>
    <clipPath id="clip-path">
      <rect id="사각형_57" data-name="사각형 57" width="23.229" height="23.229" fill="none"/>
    </clipPath>
  </defs>
  <g id="그룹_2381" data-name="그룹 2381" clip-path="url(#clip-path)">
    <path id="패스_2110" data-name="패스 2110" d="M12.813,19.247l10.093-4.9a11.614,11.614,0,1,1-.8-7.713L12.3,11.394,5.415,8.427a1.106,1.106,0,1,0-.875,2.032l7.352,3.167a1.1,1.1,0,0,0,.921-.021L22.865,8.722a11.663,11.663,0,0,1,.354,2.421q.012.293.009.584L12.3,17.035,5.415,14.069A1.106,1.106,0,0,0,4.54,16.1l7.352,3.167a1.1,1.1,0,0,0,.921-.021" transform="translate(0 0)" fill="#fff"/>
  </g>
</svg>
