<svg id="그룹_16" data-name="그룹 16" xmlns="http://www.w3.org/2000/svg" width="26.75" height="26.75" viewBox="0 0 26.75 26.75">
  <path id="패스_3" data-name="패스 3" d="M0,0H26.75V26.75H0Z" fill="none"/>
  <path id="패스_4" data-name="패스 4" d="M9.687,20.824C4.895,22.385,4.895,18.038,3,17.481m13.375,5.573v-3.9c0-1.115.111-1.56-.557-2.229,3.121-.334,6.13-1.56,6.13-6.687A5.127,5.127,0,0,0,20.5,6.669,4.681,4.681,0,0,0,20.387,3.1s-1.226-.334-3.9,1.449a13.709,13.709,0,0,0-6.91,0C6.9,2.768,5.675,3.1,5.675,3.1a4.681,4.681,0,0,0-.111,3.567,5.127,5.127,0,0,0-1.449,3.567c0,5.127,3.009,6.353,6.13,6.687a2.322,2.322,0,0,0-.557,2.229v3.9" transform="translate(0.344 0.353)" fill="#fff" stroke="#fff" stroke-linecap="round" stroke-linejoin="round" stroke-width="1.5"/>
</svg>
