<svg xmlns="http://www.w3.org/2000/svg" width="17.5" height="21.5" viewBox="0 0 17.5 21.5">
  <g id="PaperFileText_1_" data-name="PaperFileText (1)" transform="translate(-3.25 -1.25)">
    <path id="패스_2105" data-name="패스 2105" d="M6,22H18a2,2,0,0,0,2-2V9.828a2,2,0,0,0-.586-1.414L13.586,2.586A2,2,0,0,0,12.172,2H6A2,2,0,0,0,4,4V20A2,2,0,0,0,6,22Z" fill="none" stroke="#fff" stroke-linecap="round" stroke-linejoin="round" stroke-width="1.5"/>
    <path id="패스_2106" data-name="패스 2106" d="M13,2.5V9h6" fill="none" stroke="#fff" stroke-linecap="round" stroke-linejoin="round" stroke-width="1.5"/>
    <path id="패스_2107" data-name="패스 2107" d="M8,17h7" fill="none" stroke="#fff" stroke-linecap="round" stroke-linejoin="round" stroke-width="1.5"/>
    <path id="패스_2108" data-name="패스 2108" d="M8,13h7" fill="none" stroke="#fff" stroke-linecap="round" stroke-linejoin="round" stroke-width="1.5"/>
    <path id="패스_2109" data-name="패스 2109" d="M8,9H9" fill="none" stroke="#fff" stroke-linecap="round" stroke-linejoin="round" stroke-width="1.5"/>
  </g>
</svg>
